# xmcd
#
# Track frame offsets: 
#        150
#        11148
#        24921
#        41769
#        65367
#        85965
#        105963
#        123936
#        145734
#        162582
#        185730
#        202653
#        219276
#        234024
#        248472
#        266820
#        271443
#        288591
#        300039
#        314562
#        335985
#
# Disc length: 4619 seconds
#
# Revision: 0
# Processed by: cddbd v1.5.2PL0 Copyright (c) Steve Scherf et al.
# Submitted via: ExactAudioCopy v0.99pb4
#
DISCID=23120915
DTITLE=Dave D'angelico - The Blues According to Texas Son
DYEAR=2009
DGENRE=Blues-Rock 
TTITLE0=In the Meantime
TTITLE1=Sugar Sweet
TTITLE2=Anything It Takes
TTITLE3=Bradshaw Boogie
TTITLE4=Wildcattin' Woman
TTITLE5=Vinnie's a Hood
TTITLE6=Cool Zone
TTITLE7=The Fool and Me
TTITLE8=Rattlesnake
TTITLE9=Becky's Got the Beat
TTITLE10=Chester's Blues
TTITLE11=Ain't No Reason
TTITLE12=Goodbye Baby Blues
TTITLE13=I Believe
TTITLE14=Albert's Groove
TTITLE15=Bats
TTITLE16=Keep On Rollin'
TTITLE17=Texas Flood Jam
TTITLE18=Ghost Blues
TTITLE19=Ice Blue Dream
TTITLE20=On Two Roads
EXTD=
EXTT0=
EXTT1=
EXTT2=
EXTT3=
EXTT4=
EXTT5=
EXTT6=
EXTT7=
EXTT8=
EXTT9=
EXTT10=
EXTT11=
EXTT12=
EXTT13=
EXTT14=
EXTT15=
EXTT16=
EXTT17=
EXTT18=
EXTT19=
EXTT20=
PLAYORDER=
